<?xml version="1.0" encoding="utf-8" standalone="no"?>
<!DOCTYPE svg PUBLIC "-//W3C//DTD SVG 1.1//EN"
  "http://www.w3.org/Graphics/SVG/1.1/DTD/svg11.dtd">
<svg xmlns:xlink="http://www.w3.org/1999/xlink" width="460.8pt" height="345.6pt" viewBox="0 0 460.8 345.6" xmlns="http://www.w3.org/2000/svg" version="1.1">
 <metadata>
  <rdf:RDF xmlns:dc="http://purl.org/dc/elements/1.1/" xmlns:cc="http://creativecommons.org/ns#" xmlns:rdf="http://www.w3.org/1999/02/22-rdf-syntax-ns#">
   <cc:Work>
    <dc:type rdf:resource="http://purl.org/dc/dcmitype/StillImage"/>
    <dc:date>2023-12-14T10:14:17.526501</dc:date>
    <dc:format>image/svg+xml</dc:format>
    <dc:creator>
     <cc:Agent>
      <dc:title>Matplotlib v3.5.3, https://matplotlib.org/</dc:title>
     </cc:Agent>
    </dc:creator>
   </cc:Work>
  </rdf:RDF>
 </metadata>
 <defs>
  <style type="text/css">*{stroke-linejoin: round; stroke-linecap: butt}</style>
 </defs>
 <g id="figure_1">
  <g id="patch_1">
   <path d="M 0 345.6 
L 460.8 345.6 
L 460.8 0 
L 0 0 
z
" style="fill: #ffffff"/>
  </g>
  <g id="axes_1">
   <g id="line2d_1">
    <path d="M 73.832727 295.488 
L 77.112066 271.010813 
L 80.391405 247.169323 
L 83.670744 224.238397 
L 86.950083 202.443439 
L 90.229421 181.963453 
L 93.50876 162.934401 
L 96.788099 145.452768 
L 100.067438 129.579258 
L 103.346777 115.342544 
L 106.626116 102.743009 
L 109.905455 91.756424 
L 113.184793 82.337522 
L 116.464132 74.423409 
L 119.743471 67.936814 
L 123.02281 62.78911 
L 126.302149 58.883132 
L 129.581488 56.11574 
L 132.860826 54.380148 
L 136.140165 53.568 
L 139.419504 53.571201 
L 142.698843 54.283502 
L 145.978182 55.601857 
L 149.257521 57.427548 
L 152.53686 59.667107 
L 155.816198 62.233028 
L 159.095537 65.04431 
L 162.374876 68.026818 
L 165.654215 71.113508 
L 168.933554 74.244504 
L 172.212893 77.367064 
L 175.492231 80.435443 
L 178.77157 83.410666 
L 182.050909 86.260233 
L 185.330248 88.957763 
L 188.609587 91.48259 
L 191.888926 93.819331 
L 195.168264 95.957431 
L 198.447603 97.890686 
L 201.726942 99.616775 
L 205.006281 101.136788 
L 208.28562 102.454763 
L 211.564959 103.577243 
L 214.844298 104.512853 
L 218.123636 105.271897 
L 221.402975 105.865985 
L 224.682314 106.307692 
L 227.961653 106.610237 
L 231.240992 106.78721 
L 234.520331 106.852309 
L 237.799669 106.819131 
L 241.079008 106.700974 
L 244.358347 106.51068 
L 247.637686 106.260498 
L 250.917025 105.961982 
L 254.196364 105.625907 
L 257.475702 105.262206 
L 260.755041 104.879934 
L 264.03438 104.487244 
L 267.313719 104.091385 
L 270.593058 103.698707 
L 273.872397 103.314688 
L 277.151736 102.94396 
L 280.431074 102.590354 
L 283.710413 102.256945 
L 286.989752 101.946103 
L 290.269091 101.659553 
L 293.54843 101.398429 
L 296.827769 101.163336 
L 300.107107 100.954412 
L 303.386446 100.771382 
L 306.665785 100.613618 
L 309.945124 100.480197 
L 313.224463 100.369949 
L 316.503802 100.281511 
L 319.78314 100.213367 
L 323.062479 100.163898 
L 326.341818 100.131412 
L 329.621157 100.114186 
L 332.900496 100.110489 
L 336.179835 100.118616 
L 339.459174 100.136903 
L 342.738512 100.163754 
L 346.017851 100.19765 
L 349.29719 100.237165 
L 352.576529 100.280975 
L 355.855868 100.327862 
L 359.135207 100.376723 
L 362.414545 100.426567 
L 365.693884 100.476519 
L 368.973223 100.525815 
L 372.252562 100.573801 
L 375.531901 100.619927 
L 378.81124 100.663745 
L 382.090579 100.704898 
L 385.369917 100.743114 
L 388.649256 100.778204 
L 391.928595 100.810048 
L 395.207934 100.838591 
L 398.487273 100.863835 
" clip-path="url(#pac0115c7b9)" style="fill: none; stroke: #1f77b4; stroke-width: 1.5; stroke-linecap: square"/>
   </g>
  </g>
 </g>
 <defs>
  <clipPath id="pac0115c7b9">
   <rect x="57.6" y="41.472" width="357.12" height="266.112"/>
  </clipPath>
 </defs>
</svg>
