<?xml version="1.0" encoding="utf-8" standalone="no"?>
<!DOCTYPE svg PUBLIC "-//W3C//DTD SVG 1.1//EN"
  "http://www.w3.org/Graphics/SVG/1.1/DTD/svg11.dtd">
<svg xmlns:xlink="http://www.w3.org/1999/xlink" width="460.8pt" height="345.6pt" viewBox="0 0 460.8 345.6" xmlns="http://www.w3.org/2000/svg" version="1.1">
 <metadata>
  <rdf:RDF xmlns:dc="http://purl.org/dc/elements/1.1/" xmlns:cc="http://creativecommons.org/ns#" xmlns:rdf="http://www.w3.org/1999/02/22-rdf-syntax-ns#">
   <cc:Work>
    <dc:type rdf:resource="http://purl.org/dc/dcmitype/StillImage"/>
    <dc:date>2022-09-05T21:04:21.365421</dc:date>
    <dc:format>image/svg+xml</dc:format>
    <dc:creator>
     <cc:Agent>
      <dc:title>Matplotlib v3.5.3, https://matplotlib.org/</dc:title>
     </cc:Agent>
    </dc:creator>
   </cc:Work>
  </rdf:RDF>
 </metadata>
 <defs>
  <style type="text/css">*{stroke-linejoin: round; stroke-linecap: butt}</style>
 </defs>
 <g id="figure_1">
  <g id="patch_1">
   <path d="M 0 345.6 
L 460.8 345.6 
L 460.8 0 
L 0 0 
z
" style="fill: #ffffff"/>
  </g>
  <g id="axes_1">
   <g id="line2d_1">
    <path d="M 73.832727 295.488 
L 77.112066 278.958206 
L 80.391405 263.556822 
L 83.670744 249.206816 
L 86.950083 235.836417 
L 90.229421 223.378751 
L 93.50876 211.77151 
L 96.788099 200.95664 
L 100.067438 190.88005 
L 103.346777 181.49134 
L 106.626116 172.743552 
L 109.905455 164.592935 
L 113.184793 156.99872 
L 116.464132 149.922927 
L 119.743471 143.330164 
L 123.02281 137.187457 
L 126.302149 131.464083 
L 129.581488 126.131417 
L 132.860826 121.162787 
L 136.140165 116.533341 
L 139.419504 112.219925 
L 142.698843 108.200966 
L 145.978182 104.456361 
L 149.257521 100.967383 
L 152.53686 97.716581 
L 155.816198 94.687695 
L 159.095537 91.865577 
L 162.374876 89.236111 
L 165.654215 86.786147 
L 168.933554 84.50343 
L 172.212893 82.376543 
L 175.492231 80.394848 
L 178.77157 78.548434 
L 182.050909 76.828066 
L 185.330248 75.22514 
L 188.609587 73.731637 
L 191.888926 72.340089 
L 195.168264 71.043535 
L 198.447603 69.835491 
L 201.726942 68.709914 
L 205.006281 67.661174 
L 208.28562 66.684028 
L 211.564959 65.773586 
L 214.844298 64.925296 
L 218.123636 64.134914 
L 221.402975 63.398488 
L 224.682314 62.712335 
L 227.961653 62.073022 
L 231.240992 61.477351 
L 234.520331 60.922344 
L 237.799669 60.405225 
L 241.079008 59.923407 
L 244.358347 59.474481 
L 247.637686 59.056201 
L 250.917025 58.666474 
L 254.196364 58.303352 
L 257.475702 57.965019 
L 260.755041 57.649783 
L 264.03438 57.356066 
L 267.313719 57.082399 
L 270.593058 56.827415 
L 273.872397 56.589837 
L 277.151736 56.368477 
L 280.431074 56.162229 
L 283.710413 55.97006 
L 286.989752 55.79101 
L 290.269091 55.624182 
L 293.54843 55.468743 
L 296.827769 55.323916 
L 300.107107 55.188974 
L 303.386446 55.063245 
L 306.665785 54.946099 
L 309.945124 54.836949 
L 313.224463 54.735251 
L 316.503802 54.640495 
L 319.78314 54.552208 
L 323.062479 54.469947 
L 326.341818 54.393302 
L 329.621157 54.32189 
L 332.900496 54.255352 
L 336.179835 54.193357 
L 339.459174 54.135593 
L 342.738512 54.081773 
L 346.017851 54.031627 
L 349.29719 53.984904 
L 352.576529 53.941371 
L 355.855868 53.90081 
L 359.135207 53.863017 
L 362.414545 53.827804 
L 365.693884 53.794996 
L 368.973223 53.764426 
L 372.252562 53.735944 
L 375.531901 53.709406 
L 378.81124 53.68468 
L 382.090579 53.661641 
L 385.369917 53.640176 
L 388.649256 53.620175 
L 391.928595 53.60154 
L 395.207934 53.584178 
L 398.487273 53.568 
" clip-path="url(#p1aca29e82f)" style="fill: none; stroke: #1f77b4; stroke-width: 1.5; stroke-linecap: square"/>
   </g>
  </g>
 </g>
 <defs>
  <clipPath id="p1aca29e82f">
   <rect x="57.6" y="41.472" width="357.12" height="266.112"/>
  </clipPath>
 </defs>
</svg>
