<?xml version="1.0" encoding="utf-8" standalone="no"?>
<!DOCTYPE svg PUBLIC "-//W3C//DTD SVG 1.1//EN"
  "http://www.w3.org/Graphics/SVG/1.1/DTD/svg11.dtd">
<svg xmlns:xlink="http://www.w3.org/1999/xlink" width="1080pt" height="720pt" viewBox="0 0 1080 720" xmlns="http://www.w3.org/2000/svg" version="1.1">
 <metadata>
  <rdf:RDF xmlns:dc="http://purl.org/dc/elements/1.1/" xmlns:cc="http://creativecommons.org/ns#" xmlns:rdf="http://www.w3.org/1999/02/22-rdf-syntax-ns#">
   <cc:Work>
    <dc:type rdf:resource="http://purl.org/dc/dcmitype/StillImage"/>
    <dc:date>2022-09-07T15:30:00.134353</dc:date>
    <dc:format>image/svg+xml</dc:format>
    <dc:creator>
     <cc:Agent>
      <dc:title>Matplotlib v3.5.3, https://matplotlib.org/</dc:title>
     </cc:Agent>
    </dc:creator>
   </cc:Work>
  </rdf:RDF>
 </metadata>
 <defs>
  <style type="text/css">*{stroke-linejoin: round; stroke-linecap: butt}</style>
 </defs>
 <g id="figure_1">
  <g id="patch_1">
   <path d="M 0 720 
L 1080 720 
L 1080 0 
L 0 0 
z
" style="fill: #ffffff"/>
  </g>
  <g id="axes_1">
   <g id="patch_2">
    <path d="M 135 640.8 
L 972 640.8 
L 972 86.4 
L 135 86.4 
z
" style="fill: #ffffff"/>
   </g>
   <g id="matplotlib.axis_1">
    <g id="xtick_1">
     <g id="line2d_1">
      <defs>
       <path id="ma4156c2fcf" d="M 0 0 
L 0 3.5 
" style="stroke: #000000; stroke-width: 0.8"/>
      </defs>
      <g>
       <use xlink:href="#ma4156c2fcf" x="173.045455" y="640.8" style="stroke: #000000; stroke-width: 0.8"/>
      </g>
     </g>
     <g id="text_1">
      <!-- 0.0 -->
      <g transform="translate(165.093892 655.398438)scale(0.1 -0.1)">
       <defs>
        <path id="DejaVuSans-30" d="M 2034 4250 
Q 1547 4250 1301 3770 
Q 1056 3291 1056 2328 
Q 1056 1369 1301 889 
Q 1547 409 2034 409 
Q 2525 409 2770 889 
Q 3016 1369 3016 2328 
Q 3016 3291 2770 3770 
Q 2525 4250 2034 4250 
z
M 2034 4750 
Q 2819 4750 3233 4129 
Q 3647 3509 3647 2328 
Q 3647 1150 3233 529 
Q 2819 -91 2034 -91 
Q 1250 -91 836 529 
Q 422 1150 422 2328 
Q 422 3509 836 4129 
Q 1250 4750 2034 4750 
z
" transform="scale(0.015625)"/>
        <path id="DejaVuSans-2e" d="M 684 794 
L 1344 794 
L 1344 0 
L 684 0 
L 684 794 
z
" transform="scale(0.015625)"/>
       </defs>
       <use xlink:href="#DejaVuSans-30"/>
       <use xlink:href="#DejaVuSans-2e" x="63.623047"/>
       <use xlink:href="#DejaVuSans-30" x="95.410156"/>
      </g>
     </g>
    </g>
    <g id="xtick_2">
     <g id="line2d_2">
      <g>
       <use xlink:href="#ma4156c2fcf" x="268.159091" y="640.8" style="stroke: #000000; stroke-width: 0.8"/>
      </g>
     </g>
     <g id="text_2">
      <!-- 2.5 -->
      <g transform="translate(260.207528 655.398438)scale(0.1 -0.1)">
       <defs>
        <path id="DejaVuSans-32" d="M 1228 531 
L 3431 531 
L 3431 0 
L 469 0 
L 469 531 
Q 828 903 1448 1529 
Q 2069 2156 2228 2338 
Q 2531 2678 2651 2914 
Q 2772 3150 2772 3378 
Q 2772 3750 2511 3984 
Q 2250 4219 1831 4219 
Q 1534 4219 1204 4116 
Q 875 4013 500 3803 
L 500 4441 
Q 881 4594 1212 4672 
Q 1544 4750 1819 4750 
Q 2544 4750 2975 4387 
Q 3406 4025 3406 3419 
Q 3406 3131 3298 2873 
Q 3191 2616 2906 2266 
Q 2828 2175 2409 1742 
Q 1991 1309 1228 531 
z
" transform="scale(0.015625)"/>
        <path id="DejaVuSans-35" d="M 691 4666 
L 3169 4666 
L 3169 4134 
L 1269 4134 
L 1269 2991 
Q 1406 3038 1543 3061 
Q 1681 3084 1819 3084 
Q 2600 3084 3056 2656 
Q 3513 2228 3513 1497 
Q 3513 744 3044 326 
Q 2575 -91 1722 -91 
Q 1428 -91 1123 -41 
Q 819 9 494 109 
L 494 744 
Q 775 591 1075 516 
Q 1375 441 1709 441 
Q 2250 441 2565 725 
Q 2881 1009 2881 1497 
Q 2881 1984 2565 2268 
Q 2250 2553 1709 2553 
Q 1456 2553 1204 2497 
Q 953 2441 691 2322 
L 691 4666 
z
" transform="scale(0.015625)"/>
       </defs>
       <use xlink:href="#DejaVuSans-32"/>
       <use xlink:href="#DejaVuSans-2e" x="63.623047"/>
       <use xlink:href="#DejaVuSans-35" x="95.410156"/>
      </g>
     </g>
    </g>
    <g id="xtick_3">
     <g id="line2d_3">
      <g>
       <use xlink:href="#ma4156c2fcf" x="363.272727" y="640.8" style="stroke: #000000; stroke-width: 0.8"/>
      </g>
     </g>
     <g id="text_3">
      <!-- 5.0 -->
      <g transform="translate(355.321165 655.398438)scale(0.1 -0.1)">
       <use xlink:href="#DejaVuSans-35"/>
       <use xlink:href="#DejaVuSans-2e" x="63.623047"/>
       <use xlink:href="#DejaVuSans-30" x="95.410156"/>
      </g>
     </g>
    </g>
    <g id="xtick_4">
     <g id="line2d_4">
      <g>
       <use xlink:href="#ma4156c2fcf" x="458.386364" y="640.8" style="stroke: #000000; stroke-width: 0.8"/>
      </g>
     </g>
     <g id="text_4">
      <!-- 7.5 -->
      <g transform="translate(450.434801 655.398438)scale(0.1 -0.1)">
       <defs>
        <path id="DejaVuSans-37" d="M 525 4666 
L 3525 4666 
L 3525 4397 
L 1831 0 
L 1172 0 
L 2766 4134 
L 525 4134 
L 525 4666 
z
" transform="scale(0.015625)"/>
       </defs>
       <use xlink:href="#DejaVuSans-37"/>
       <use xlink:href="#DejaVuSans-2e" x="63.623047"/>
       <use xlink:href="#DejaVuSans-35" x="95.410156"/>
      </g>
     </g>
    </g>
    <g id="xtick_5">
     <g id="line2d_5">
      <g>
       <use xlink:href="#ma4156c2fcf" x="553.5" y="640.8" style="stroke: #000000; stroke-width: 0.8"/>
      </g>
     </g>
     <g id="text_5">
      <!-- 10.0 -->
      <g transform="translate(542.367188 655.398438)scale(0.1 -0.1)">
       <defs>
        <path id="DejaVuSans-31" d="M 794 531 
L 1825 531 
L 1825 4091 
L 703 3866 
L 703 4441 
L 1819 4666 
L 2450 4666 
L 2450 531 
L 3481 531 
L 3481 0 
L 794 0 
L 794 531 
z
" transform="scale(0.015625)"/>
       </defs>
       <use xlink:href="#DejaVuSans-31"/>
       <use xlink:href="#DejaVuSans-30" x="63.623047"/>
       <use xlink:href="#DejaVuSans-2e" x="127.246094"/>
       <use xlink:href="#DejaVuSans-30" x="159.033203"/>
      </g>
     </g>
    </g>
    <g id="xtick_6">
     <g id="line2d_6">
      <g>
       <use xlink:href="#ma4156c2fcf" x="648.613636" y="640.8" style="stroke: #000000; stroke-width: 0.8"/>
      </g>
     </g>
     <g id="text_6">
      <!-- 12.5 -->
      <g transform="translate(637.480824 655.398438)scale(0.1 -0.1)">
       <use xlink:href="#DejaVuSans-31"/>
       <use xlink:href="#DejaVuSans-32" x="63.623047"/>
       <use xlink:href="#DejaVuSans-2e" x="127.246094"/>
       <use xlink:href="#DejaVuSans-35" x="159.033203"/>
      </g>
     </g>
    </g>
    <g id="xtick_7">
     <g id="line2d_7">
      <g>
       <use xlink:href="#ma4156c2fcf" x="743.727273" y="640.8" style="stroke: #000000; stroke-width: 0.8"/>
      </g>
     </g>
     <g id="text_7">
      <!-- 15.0 -->
      <g transform="translate(732.59446 655.398438)scale(0.1 -0.1)">
       <use xlink:href="#DejaVuSans-31"/>
       <use xlink:href="#DejaVuSans-35" x="63.623047"/>
       <use xlink:href="#DejaVuSans-2e" x="127.246094"/>
       <use xlink:href="#DejaVuSans-30" x="159.033203"/>
      </g>
     </g>
    </g>
    <g id="xtick_8">
     <g id="line2d_8">
      <g>
       <use xlink:href="#ma4156c2fcf" x="838.840909" y="640.8" style="stroke: #000000; stroke-width: 0.8"/>
      </g>
     </g>
     <g id="text_8">
      <!-- 17.5 -->
      <g transform="translate(827.708097 655.398438)scale(0.1 -0.1)">
       <use xlink:href="#DejaVuSans-31"/>
       <use xlink:href="#DejaVuSans-37" x="63.623047"/>
       <use xlink:href="#DejaVuSans-2e" x="127.246094"/>
       <use xlink:href="#DejaVuSans-35" x="159.033203"/>
      </g>
     </g>
    </g>
    <g id="xtick_9">
     <g id="line2d_9">
      <g>
       <use xlink:href="#ma4156c2fcf" x="933.954545" y="640.8" style="stroke: #000000; stroke-width: 0.8"/>
      </g>
     </g>
     <g id="text_9">
      <!-- 20.0 -->
      <g transform="translate(922.821733 655.398438)scale(0.1 -0.1)">
       <use xlink:href="#DejaVuSans-32"/>
       <use xlink:href="#DejaVuSans-30" x="63.623047"/>
       <use xlink:href="#DejaVuSans-2e" x="127.246094"/>
       <use xlink:href="#DejaVuSans-30" x="159.033203"/>
      </g>
     </g>
    </g>
   </g>
   <g id="matplotlib.axis_2">
    <g id="ytick_1">
     <g id="line2d_10">
      <defs>
       <path id="m61b77f6e94" d="M 0 0 
L -3.5 0 
" style="stroke: #000000; stroke-width: 0.8"/>
      </defs>
      <g>
       <use xlink:href="#m61b77f6e94" x="135" y="615.6" style="stroke: #000000; stroke-width: 0.8"/>
      </g>
     </g>
     <g id="text_10">
      <!-- 0.0 -->
      <g transform="translate(112.096875 619.399219)scale(0.1 -0.1)">
       <use xlink:href="#DejaVuSans-30"/>
       <use xlink:href="#DejaVuSans-2e" x="63.623047"/>
       <use xlink:href="#DejaVuSans-30" x="95.410156"/>
      </g>
     </g>
    </g>
    <g id="ytick_2">
     <g id="line2d_11">
      <g>
       <use xlink:href="#m61b77f6e94" x="135" y="514.8" style="stroke: #000000; stroke-width: 0.8"/>
      </g>
     </g>
     <g id="text_11">
      <!-- 0.2 -->
      <g transform="translate(112.096875 518.599219)scale(0.1 -0.1)">
       <use xlink:href="#DejaVuSans-30"/>
       <use xlink:href="#DejaVuSans-2e" x="63.623047"/>
       <use xlink:href="#DejaVuSans-32" x="95.410156"/>
      </g>
     </g>
    </g>
    <g id="ytick_3">
     <g id="line2d_12">
      <g>
       <use xlink:href="#m61b77f6e94" x="135" y="414" style="stroke: #000000; stroke-width: 0.8"/>
      </g>
     </g>
     <g id="text_12">
      <!-- 0.4 -->
      <g transform="translate(112.096875 417.799218)scale(0.1 -0.1)">
       <defs>
        <path id="DejaVuSans-34" d="M 2419 4116 
L 825 1625 
L 2419 1625 
L 2419 4116 
z
M 2253 4666 
L 3047 4666 
L 3047 1625 
L 3713 1625 
L 3713 1100 
L 3047 1100 
L 3047 0 
L 2419 0 
L 2419 1100 
L 313 1100 
L 313 1709 
L 2253 4666 
z
" transform="scale(0.015625)"/>
       </defs>
       <use xlink:href="#DejaVuSans-30"/>
       <use xlink:href="#DejaVuSans-2e" x="63.623047"/>
       <use xlink:href="#DejaVuSans-34" x="95.410156"/>
      </g>
     </g>
    </g>
    <g id="ytick_4">
     <g id="line2d_13">
      <g>
       <use xlink:href="#m61b77f6e94" x="135" y="313.199999" style="stroke: #000000; stroke-width: 0.8"/>
      </g>
     </g>
     <g id="text_13">
      <!-- 0.6 -->
      <g transform="translate(112.096875 316.999218)scale(0.1 -0.1)">
       <defs>
        <path id="DejaVuSans-36" d="M 2113 2584 
Q 1688 2584 1439 2293 
Q 1191 2003 1191 1497 
Q 1191 994 1439 701 
Q 1688 409 2113 409 
Q 2538 409 2786 701 
Q 3034 994 3034 1497 
Q 3034 2003 2786 2293 
Q 2538 2584 2113 2584 
z
M 3366 4563 
L 3366 3988 
Q 3128 4100 2886 4159 
Q 2644 4219 2406 4219 
Q 1781 4219 1451 3797 
Q 1122 3375 1075 2522 
Q 1259 2794 1537 2939 
Q 1816 3084 2150 3084 
Q 2853 3084 3261 2657 
Q 3669 2231 3669 1497 
Q 3669 778 3244 343 
Q 2819 -91 2113 -91 
Q 1303 -91 875 529 
Q 447 1150 447 2328 
Q 447 3434 972 4092 
Q 1497 4750 2381 4750 
Q 2619 4750 2861 4703 
Q 3103 4656 3366 4563 
z
" transform="scale(0.015625)"/>
       </defs>
       <use xlink:href="#DejaVuSans-30"/>
       <use xlink:href="#DejaVuSans-2e" x="63.623047"/>
       <use xlink:href="#DejaVuSans-36" x="95.410156"/>
      </g>
     </g>
    </g>
    <g id="ytick_5">
     <g id="line2d_14">
      <g>
       <use xlink:href="#m61b77f6e94" x="135" y="212.399999" style="stroke: #000000; stroke-width: 0.8"/>
      </g>
     </g>
     <g id="text_14">
      <!-- 0.8 -->
      <g transform="translate(112.096875 216.199218)scale(0.1 -0.1)">
       <defs>
        <path id="DejaVuSans-38" d="M 2034 2216 
Q 1584 2216 1326 1975 
Q 1069 1734 1069 1313 
Q 1069 891 1326 650 
Q 1584 409 2034 409 
Q 2484 409 2743 651 
Q 3003 894 3003 1313 
Q 3003 1734 2745 1975 
Q 2488 2216 2034 2216 
z
M 1403 2484 
Q 997 2584 770 2862 
Q 544 3141 544 3541 
Q 544 4100 942 4425 
Q 1341 4750 2034 4750 
Q 2731 4750 3128 4425 
Q 3525 4100 3525 3541 
Q 3525 3141 3298 2862 
Q 3072 2584 2669 2484 
Q 3125 2378 3379 2068 
Q 3634 1759 3634 1313 
Q 3634 634 3220 271 
Q 2806 -91 2034 -91 
Q 1263 -91 848 271 
Q 434 634 434 1313 
Q 434 1759 690 2068 
Q 947 2378 1403 2484 
z
M 1172 3481 
Q 1172 3119 1398 2916 
Q 1625 2713 2034 2713 
Q 2441 2713 2670 2916 
Q 2900 3119 2900 3481 
Q 2900 3844 2670 4047 
Q 2441 4250 2034 4250 
Q 1625 4250 1398 4047 
Q 1172 3844 1172 3481 
z
" transform="scale(0.015625)"/>
       </defs>
       <use xlink:href="#DejaVuSans-30"/>
       <use xlink:href="#DejaVuSans-2e" x="63.623047"/>
       <use xlink:href="#DejaVuSans-38" x="95.410156"/>
      </g>
     </g>
    </g>
    <g id="ytick_6">
     <g id="line2d_15">
      <g>
       <use xlink:href="#m61b77f6e94" x="135" y="111.599999" style="stroke: #000000; stroke-width: 0.8"/>
      </g>
     </g>
     <g id="text_15">
      <!-- 1.0 -->
      <g transform="translate(112.096875 115.399218)scale(0.1 -0.1)">
       <use xlink:href="#DejaVuSans-31"/>
       <use xlink:href="#DejaVuSans-2e" x="63.623047"/>
       <use xlink:href="#DejaVuSans-30" x="95.410156"/>
      </g>
     </g>
    </g>
   </g>
   <g id="line2d_16">
    <path d="M 173.045455 615.6 
L 178.293103 550.66402 
L 183.540752 494.094471 
L 188.788401 444.813413 
L 194.03605 401.881786 
L 199.283699 364.481524 
L 204.531348 331.899957 
L 209.778997 303.516239 
L 215.026646 278.789515 
L 220.274295 257.248612 
L 225.521944 238.483065 
L 230.769592 222.135295 
L 236.017241 207.893791 
L 241.26489 195.487181 
L 246.512539 184.679053 
L 251.760188 175.263458 
L 257.007837 167.060979 
L 262.255486 159.915318 
L 267.503135 153.690313 
L 272.750784 148.267345 
L 277.998433 143.543079 
L 283.246082 139.427494 
L 288.49373 135.842165 
L 293.741379 132.718774 
L 298.989028 129.997805 
L 304.236677 127.627409 
L 309.484326 125.562418 
L 314.731975 123.763483 
L 319.979624 122.196325 
L 325.227273 120.831081 
L 330.474922 119.641737 
L 335.722571 118.60563 
L 340.970219 117.703016 
L 351.465517 116.231686 
L 361.960815 115.115068 
L 372.456113 114.267646 
L 382.951411 113.624524 
L 398.694357 112.938489 
L 414.437304 112.484925 
L 435.4279 112.109677 
L 466.913793 111.822781 
L 514.142633 111.66438 
L 619.095611 111.604079 
L 933.954545 111.6 
L 933.954545 111.6 
" clip-path="url(#p5959e09894)" style="fill: none; stroke: #1f77b4; stroke-width: 1.5; stroke-linecap: square"/>
   </g>
   <g id="line2d_17">
    <path d="M 173.045455 615.6 
L 178.293103 611.224574 
L 183.540752 599.610188 
L 188.788401 582.694825 
L 194.03605 562.037255 
L 199.283699 538.882575 
L 204.531348 514.217164 
L 220.274295 438.053786 
L 225.521944 413.494191 
L 230.769592 389.84402 
L 236.017241 367.27662 
L 241.26489 345.905576 
L 246.512539 325.797226 
L 251.760188 306.980959 
L 257.007837 289.457626 
L 262.255486 273.206412 
L 267.503135 258.190404 
L 272.750784 244.361081 
L 277.998433 231.661922 
L 283.246082 220.031271 
L 288.49373 209.4046 
L 293.741379 199.716269 
L 298.989028 190.900889 
L 304.236677 182.894342 
L 309.484326 175.634542 
L 314.731975 169.061975 
L 319.979624 163.120065 
L 325.227273 157.755409 
L 330.474922 152.917894 
L 335.722571 148.56074 
L 340.970219 144.640468 
L 346.217868 141.116831 
L 351.465517 137.952699 
L 356.713166 135.113927 
L 361.960815 132.569201 
L 367.208464 130.289873 
L 372.456113 128.249798 
L 377.703762 126.425162 
L 382.951411 124.794314 
L 388.19906 123.337609 
L 393.446708 122.037245 
L 398.694357 120.877116 
L 409.189655 118.920788 
L 419.684953 117.36854 
L 430.180251 116.139241 
L 440.675549 115.167396 
L 451.170846 114.400316 
L 466.913793 113.54358 
L 482.65674 112.945921 
L 503.647335 112.421995 
L 529.88558 112.041789 
L 566.619122 111.783876 
L 624.34326 111.645719 
L 771.277429 111.601249 
L 933.954545 111.600021 
L 933.954545 111.600021 
" clip-path="url(#p5959e09894)" style="fill: none; stroke: #ff7f0e; stroke-width: 1.5; stroke-linecap: square"/>
   </g>
   <g id="line2d_18">
    <path d="M 173.045455 615.6 
L 178.293103 615.401164 
L 183.540752 614.164079 
L 188.788401 611.222014 
L 194.03605 606.218074 
L 199.283699 599.020869 
L 204.531348 589.658766 
L 209.778997 578.269097 
L 215.026646 565.059316 
L 220.274295 550.277688 
L 225.521944 534.19152 
L 230.769592 517.071329 
L 236.017241 499.179651 
L 246.512539 462.049256 
L 262.255486 406.030454 
L 267.503135 387.914654 
L 272.750784 370.27701 
L 277.998433 353.205153 
L 283.246082 336.767776 
L 288.49373 321.016569 
L 293.741379 305.988157 
L 298.989028 291.705992 
L 304.236677 278.182157 
L 309.484326 265.41904 
L 314.731975 253.41089 
L 319.979624 242.145219 
L 325.227273 231.604065 
L 330.474922 221.765117 
L 335.722571 212.6027 
L 340.970219 204.088639 
L 346.217868 196.193001 
L 351.465517 188.884731 
L 356.713166 182.132189 
L 361.960815 175.903601 
L 367.208464 170.167431 
L 372.456113 164.892679 
L 377.703762 160.049128 
L 382.951411 155.60753 
L 388.19906 151.539749 
L 393.446708 147.818867 
L 398.694357 144.419254 
L 403.942006 141.316609 
L 409.189655 138.487986 
L 414.437304 135.911787 
L 419.684953 133.567754 
L 424.932602 131.436937 
L 430.180251 129.501658 
L 435.4279 127.745469 
L 440.675549 126.153098 
L 445.923197 124.710396 
L 451.170846 123.404282 
L 461.666144 121.154472 
L 472.161442 119.318138 
L 482.65674 117.823115 
L 493.152038 116.608862 
L 503.647335 115.624843 
L 514.142633 114.829064 
L 529.88558 113.914021 
L 545.628527 113.253158 
L 566.619122 112.651128 
L 592.857367 112.192964 
L 624.34326 111.895806 
L 671.5721 111.702676 
L 760.782132 111.613369 
L 933.954545 111.600229 
L 933.954545 111.600229 
" clip-path="url(#p5959e09894)" style="fill: none; stroke: #2ca02c; stroke-width: 1.5; stroke-linecap: square"/>
   </g>
   <g id="line2d_19">
    <path d="M 173.045455 615.6 
L 183.540752 615.502368 
L 188.788401 615.156799 
L 194.03605 614.343283 
L 199.283699 612.845764 
L 204.531348 610.470243 
L 209.778997 607.059025 
L 215.026646 602.49741 
L 220.274295 596.715164 
L 225.521944 589.684544 
L 230.769592 581.416174 
L 236.017241 571.953737 
L 241.26489 561.368152 
L 246.512539 549.751711 
L 251.760188 537.2125 
L 257.007837 523.869277 
L 262.255486 509.846946 
L 267.503135 495.272655 
L 277.998433 464.969043 
L 304.236677 387.70838 
L 314.731975 358.119889 
L 319.979624 343.878751 
L 325.227273 330.06894 
L 330.474922 316.726803 
L 335.722571 303.880895 
L 340.970219 291.552614 
L 346.217868 279.756845 
L 351.465517 268.502619 
L 356.713166 257.793759 
L 361.960815 247.629506 
L 367.208464 238.005115 
L 372.456113 228.912425 
L 377.703762 220.340378 
L 382.951411 212.275513 
L 388.19906 204.702404 
L 393.446708 197.60407 
L 398.694357 190.96233 
L 403.942006 184.758134 
L 409.189655 178.971843 
L 414.437304 173.583482 
L 419.684953 168.572953 
L 424.932602 163.920226 
L 430.180251 159.605494 
L 435.4279 155.609307 
L 440.675549 151.912677 
L 445.923197 148.497171 
L 451.170846 145.344981 
L 456.418495 142.438971 
L 461.666144 139.762723 
L 466.913793 137.30056 
L 472.161442 135.037563 
L 477.409091 132.959575 
L 482.65674 131.053203 
L 487.904389 129.305807 
L 493.152038 127.705485 
L 498.399687 126.241062 
L 503.647335 124.902058 
L 514.142633 122.561755 
L 524.637931 120.613792 
L 535.133229 118.996863 
L 545.628527 117.658195 
L 556.123824 116.552616 
L 566.619122 115.641654 
L 582.362069 114.570186 
L 598.105016 113.775048 
L 613.847962 113.187497 
L 634.838558 112.638205 
L 661.076803 112.206251 
L 692.562696 111.914906 
L 739.791536 111.715887 
L 829.001567 111.616735 
L 933.954545 111.601614 
L 933.954545 111.601614 
" clip-path="url(#p5959e09894)" style="fill: none; stroke: #d62728; stroke-width: 1.5; stroke-linecap: square"/>
   </g>
   <g id="line2d_20">
    <path d="M 173.045455 615.6 
L 188.788401 615.563845 
L 194.03605 615.464001 
L 199.283699 615.229367 
L 204.531348 614.776066 
L 209.778997 614.008318 
L 215.026646 612.82516 
L 220.274295 611.126795 
L 225.521944 608.82007 
L 230.769592 605.82284 
L 236.017241 602.067152 
L 241.26489 597.501295 
L 246.512539 592.090828 
L 251.760188 585.818737 
L 257.007837 578.684881 
L 262.255486 570.704889 
L 267.503135 561.908655 
L 272.750784 552.338567 
L 277.998433 542.047588 
L 283.246082 531.097274 
L 288.49373 519.555816 
L 293.741379 507.496168 
L 298.989028 494.994287 
L 309.484326 468.973272 
L 319.979624 442.104229 
L 340.970219 388.064587 
L 351.465517 361.847729 
L 356.713166 349.109447 
L 361.960815 336.668559 
L 367.208464 324.556644 
L 372.456113 312.800367 
L 377.703762 301.421715 
L 382.951411 290.438248 
L 388.19906 279.8634 
L 393.446708 269.706777 
L 398.694357 259.974478 
L 403.942006 250.669413 
L 409.189655 241.791622 
L 414.437304 233.338583 
L 419.684953 225.305516 
L 424.932602 217.68567 
L 430.180251 210.470596 
L 435.4279 203.650405 
L 440.675549 197.214004 
L 445.923197 191.14932 
L 451.170846 185.443499 
L 456.418495 180.083095 
L 461.666144 175.054232 
L 466.913793 170.342755 
L 472.161442 165.934365 
L 477.409091 161.814729 
L 482.65674 157.969591 
L 487.904389 154.384855 
L 493.152038 151.046659 
L 498.399687 147.941446 
L 503.647335 145.056008 
L 508.894984 142.377535 
L 514.142633 139.893649 
L 519.390282 137.592427 
L 524.637931 135.462424 
L 529.88558 133.492684 
L 535.133229 131.672746 
L 540.380878 129.992652 
L 545.628527 128.44294 
L 556.123824 125.699276 
L 566.619122 123.375772 
L 577.11442 121.413832 
L 587.609718 119.761779 
L 598.105016 118.374326 
L 608.600313 117.212004 
L 619.095611 116.240601 
L 634.838558 115.078046 
L 650.581505 114.197027 
L 666.324451 113.532363 
L 687.315047 112.896199 
L 713.553292 112.38084 
L 745.039185 112.020673 
L 787.020376 111.781526 
L 855.239812 111.644802 
L 933.954545 111.608539 
L 933.954545 111.608539 
" clip-path="url(#p5959e09894)" style="fill: none; stroke: #9467bd; stroke-width: 1.5; stroke-linecap: square"/>
   </g>
   <g id="line2d_21">
    <path d="M 173.045455 615.6 
L 204.315691 615.492736 
L 214.739103 615.121385 
L 219.950809 614.734888 
L 225.162516 614.148091 
L 230.374222 613.305052 
L 235.585928 612.147453 
L 240.797634 610.616792 
L 246.00934 608.656493 
L 251.221046 606.21383 
L 256.432752 603.241582 
L 261.644458 599.699376 
L 266.856164 595.554703 
L 272.06787 590.783602 
L 277.279577 585.371031 
L 282.491283 579.310943 
L 287.702989 572.606117 
L 292.914695 565.267764 
L 298.126401 557.31496 
L 303.338107 548.773942 
L 308.549813 539.677302 
L 313.761519 530.063115 
L 318.973225 519.974037 
L 324.184932 509.456391 
L 329.396638 498.559271 
L 334.608344 487.333681 
L 345.031756 464.105837 
L 355.455168 440.189779 
L 381.513699 379.951709 
L 391.937111 356.570108 
L 402.360523 334.009713 
L 407.572229 323.103703 
L 412.783935 312.476115 
L 417.995641 302.144829 
L 423.207347 292.124787 
L 428.419054 282.428131 
L 433.63076 273.064353 
L 438.842466 264.040465 
L 444.054172 255.361167 
L 449.265878 247.029025 
L 454.477584 239.044657 
L 459.68929 231.406902 
L 464.900996 224.113006 
L 470.112702 217.158789 
L 475.324408 210.53881 
L 480.536115 204.246532 
L 485.747821 198.274465 
L 490.959527 192.614316 
L 496.171233 187.257119 
L 501.382939 182.193359 
L 506.594645 177.413087 
L 511.806351 172.906025 
L 517.018057 168.661665 
L 522.229763 164.669351 
L 527.441469 160.918359 
L 532.653176 157.397969 
L 537.864882 154.097524 
L 543.076588 151.006484 
L 548.288294 148.114474 
L 553.5 145.411324 
L 558.711706 142.887105 
L 563.923412 140.532153 
L 569.135118 138.337096 
L 574.346824 136.292872 
L 579.558531 134.390742 
L 584.770237 132.622304 
L 589.981943 130.979494 
L 600.405355 128.040234 
L 610.828767 125.515373 
L 621.252179 123.352779 
L 631.675592 121.505596 
L 642.099004 119.931991 
L 652.522416 118.594828 
L 662.945828 117.461323 
L 673.36924 116.502679 
L 689.004359 115.338398 
L 704.639477 114.440068 
L 720.274595 113.750026 
L 741.12142 113.075756 
L 767.17995 112.51483 
L 798.450187 112.109963 
L 840.143836 111.830171 
L 902.684309 111.66767 
L 933.954545 111.636241 
L 933.954545 111.636241 
" clip-path="url(#p5959e09894)" style="fill: none; stroke: #8c564b; stroke-width: 1.5; stroke-linecap: square"/>
   </g>
   <g id="line2d_22">
    <path d="M 173.045455 615.6 
L 214.739103 615.526671 
L 225.162516 615.323629 
L 235.585928 614.816398 
L 240.797634 614.378801 
L 246.00934 613.77373 
L 251.221046 612.964121 
L 256.432752 611.91125 
L 261.644458 610.575739 
L 266.856164 608.91859 
L 272.06787 606.90219 
L 277.279577 604.491254 
L 282.491283 601.653679 
L 287.702989 598.361279 
L 292.914695 594.590387 
L 298.126401 590.322325 
L 303.338107 585.543725 
L 308.549813 580.246713 
L 313.761519 574.428965 
L 318.973225 568.093638 
L 324.184932 561.249194 
L 329.396638 553.909136 
L 334.608344 546.091654 
L 339.82005 537.819221 
L 345.031756 529.118132 
L 350.243462 520.018014 
L 355.455168 510.551318 
L 360.666874 500.752797 
L 365.87858 490.658992 
L 376.301993 469.73765 
L 386.725405 448.096863 
L 407.572229 403.878932 
L 423.207347 371.005959 
L 433.63076 349.687709 
L 444.054172 329.079654 
L 454.477584 309.341224 
L 459.68929 299.838283 
L 464.900996 290.596668 
L 470.112702 281.626687 
L 475.324408 272.936706 
L 480.536115 264.533252 
L 485.747821 256.421115 
L 490.959527 248.603458 
L 496.171233 241.081934 
L 501.382939 233.856797 
L 506.594645 226.927024 
L 511.806351 220.290422 
L 517.018057 213.943752 
L 522.229763 207.882831 
L 527.441469 202.102642 
L 532.653176 196.597438 
L 537.864882 191.360839 
L 543.076588 186.385923 
L 548.288294 181.665317 
L 553.5 177.191275 
L 558.711706 172.955759 
L 563.923412 168.950502 
L 569.135118 165.167081 
L 574.346824 161.596968 
L 579.558531 158.231591 
L 584.770237 155.062376 
L 589.981943 152.080794 
L 595.193649 149.278399 
L 600.405355 146.64686 
L 605.617061 144.177992 
L 610.828767 141.86378 
L 616.040473 139.696403 
L 621.252179 137.668249 
L 626.463885 135.771933 
L 631.675592 134.000306 
L 642.099004 130.803765 
L 652.522416 128.026474 
L 662.945828 125.620435 
L 673.36924 123.541799 
L 683.792653 121.750787 
L 694.216065 120.211534 
L 704.639477 118.891889 
L 715.062889 117.763179 
L 725.486301 116.799962 
L 741.12142 115.617014 
L 756.756538 114.691771 
L 772.391656 113.971288 
L 793.238481 113.256133 
L 819.297011 112.649089 
L 850.567248 112.200068 
L 887.049191 111.908479 
L 933.954545 111.728581 
L 933.954545 111.728581 
" clip-path="url(#p5959e09894)" style="fill: none; stroke: #e377c2; stroke-width: 1.5; stroke-linecap: square"/>
   </g>
   <g id="line2d_23">
    <path d="M 173.045455 615.6 
L 229.599509 615.519565 
L 239.882064 615.358102 
L 250.164619 614.998827 
L 260.447174 614.304425 
L 265.588452 613.778141 
L 270.72973 613.100013 
L 275.871007 612.243888 
L 281.012285 611.182733 
L 286.153563 609.889145 
L 291.29484 608.335887 
L 296.436118 606.496417 
L 301.577396 604.345413 
L 306.718673 601.859255 
L 311.859951 599.016467 
L 317.001229 595.798116 
L 322.142506 592.188139 
L 327.283784 588.17361 
L 332.425061 583.744948 
L 337.566339 578.896042 
L 342.707617 573.624326 
L 347.848894 567.930781 
L 352.990172 561.81988 
L 358.13145 555.299481 
L 363.272727 548.380676 
L 368.414005 541.077589 
L 373.555283 533.40715 
L 378.69656 525.388832 
L 383.837838 517.044377 
L 388.979115 508.3975 
L 394.120393 499.473581 
L 404.402948 480.902664 
L 414.685504 461.556527 
L 424.968059 441.667752 
L 466.09828 361.165821 
L 476.380835 341.796832 
L 486.663391 323.054989 
L 496.945946 305.060541 
L 502.087224 296.374419 
L 507.228501 287.909126 
L 512.369779 279.672919 
L 517.511057 271.672665 
L 522.652334 263.913897 
L 527.793612 256.400878 
L 532.934889 249.13667 
L 538.076167 242.123206 
L 543.217445 235.361362 
L 548.358722 228.851033 
L 553.5 222.591205 
L 558.641278 216.580036 
L 563.782555 210.814924 
L 568.923833 205.292583 
L 574.065111 200.009116 
L 579.206388 194.960077 
L 584.347666 190.140544 
L 589.488943 185.545178 
L 594.630221 181.168282 
L 599.771499 177.003863 
L 604.912776 173.045679 
L 610.054054 169.287292 
L 615.195332 165.722115 
L 620.336609 162.343452 
L 625.477887 159.14454 
L 630.619165 156.118584 
L 635.760442 153.258791 
L 640.90172 150.558398 
L 646.042998 148.010697 
L 651.184275 145.609065 
L 656.325553 143.346978 
L 661.46683 141.218033 
L 666.608108 139.215966 
L 676.890663 135.568154 
L 687.173219 132.356599 
L 697.455774 129.537197 
L 707.738329 127.068852 
L 718.020885 124.91355 
L 728.30344 123.036367 
L 738.585995 121.405409 
L 748.86855 119.991718 
L 759.151106 118.769133 
L 769.433661 117.714137 
L 784.857494 116.400464 
L 800.281327 115.355486 
L 815.70516 114.527848 
L 836.27027 113.690076 
L 856.835381 113.083715 
L 882.541769 112.559655 
L 913.389435 112.163121 
L 933.954545 111.992408 
L 933.954545 111.992408 
" clip-path="url(#p5959e09894)" style="fill: none; stroke: #7f7f7f; stroke-width: 1.5; stroke-linecap: square"/>
   </g>
   <g id="line2d_24">
    <path d="M 173.045455 615.6 
L 244.063636 615.527657 
L 259.281818 615.308036 
L 269.427273 614.971176 
L 279.572727 614.373876 
L 284.645455 613.940758 
L 289.718182 613.395575 
L 294.790909 612.720074 
L 299.863636 611.895128 
L 304.936364 610.900994 
L 310.009091 609.717608 
L 315.081818 608.324885 
L 320.154545 606.703026 
L 325.227273 604.832829 
L 330.3 602.69599 
L 335.372727 600.275387 
L 340.445455 597.555342 
L 345.518182 594.521865 
L 350.590909 591.162858 
L 355.663636 587.468294 
L 360.736364 583.430355 
L 365.809091 579.04354 
L 370.881818 574.304736 
L 375.954545 569.213245 
L 381.027273 563.770788 
L 386.1 557.981474 
L 391.172727 551.851728 
L 396.245455 545.390211 
L 401.318182 538.607697 
L 406.390909 531.516938 
L 411.463636 524.132514 
L 416.536364 516.470659 
L 421.609091 508.549085 
L 426.681818 500.386795 
L 436.827273 483.421358 
L 446.972727 465.744804 
L 457.118182 447.535926 
L 472.336364 419.620572 
L 497.7 372.937119 
L 507.845455 354.669559 
L 517.990909 336.838599 
L 528.136364 319.557459 
L 538.281818 302.921405 
L 548.427273 287.007722 
L 553.5 279.341117 
L 558.572727 271.876206 
L 563.645455 264.617878 
L 568.718182 257.570056 
L 573.790909 250.735746 
L 578.863636 244.117077 
L 583.936364 237.715356 
L 589.009091 231.53111 
L 594.081818 225.564144 
L 599.154545 219.813587 
L 604.227273 214.277946 
L 609.3 208.955156 
L 614.372727 203.842633 
L 619.445455 198.937317 
L 624.518182 194.235726 
L 629.590909 189.734001 
L 634.663636 185.427948 
L 639.736364 181.313083 
L 644.809091 177.384674 
L 649.881818 173.637778 
L 654.954545 170.067276 
L 660.027273 166.667911 
L 665.1 163.434318 
L 670.172727 160.361056 
L 675.245455 157.442631 
L 680.318182 154.673527 
L 685.390909 152.048227 
L 690.463636 149.561233 
L 695.536364 147.207088 
L 700.609091 144.980392 
L 710.754545 140.888124 
L 720.9 137.24292 
L 731.045455 134.005005 
L 741.190909 131.136612 
L 751.336364 128.602162 
L 761.481818 126.368385 
L 771.627273 124.404371 
L 781.772727 122.681575 
L 791.918182 121.173783 
L 802.063636 119.857045 
L 812.209091 118.709584 
L 827.427273 117.263192 
L 842.645455 116.095285 
L 857.863636 115.156228 
L 878.154545 114.188905 
L 898.445455 113.474383 
L 923.809091 112.842668 
L 933.954545 112.651978 
L 933.954545 112.651978 
" clip-path="url(#p5959e09894)" style="fill: none; stroke: #bcbd22; stroke-width: 1.5; stroke-linecap: square"/>
   </g>
   <g id="line2d_25">
    <path d="M 173.045455 615.6 
L 262.564171 615.513108 
L 277.483957 615.313477 
L 287.430481 615.035392 
L 297.377005 614.568014 
L 307.323529 613.829774 
L 317.270053 612.723843 
L 322.243316 611.999267 
L 327.216578 611.141115 
L 332.18984 610.134537 
L 337.163102 608.964515 
L 342.136364 607.61604 
L 347.109626 606.074298 
L 352.082888 604.32486 
L 357.05615 602.353865 
L 362.029412 600.148196 
L 367.002674 597.695652 
L 371.975936 594.985099 
L 376.949198 592.006621 
L 381.92246 588.751635 
L 386.895722 585.213005 
L 391.868984 581.38513 
L 396.842246 577.264008 
L 401.815508 572.847289 
L 406.78877 568.134298 
L 411.762032 563.126045 
L 416.735294 557.825217 
L 421.708556 552.236142 
L 426.681818 546.364747 
L 431.65508 540.218499 
L 436.628342 533.806323 
L 441.601604 527.138518 
L 446.574866 520.226658 
L 451.548128 513.083485 
L 456.52139 505.722795 
L 466.467914 490.408586 
L 476.414439 474.410827 
L 486.360963 457.865257 
L 496.307487 440.912604 
L 511.227273 415.030374 
L 536.093583 371.819924 
L 546.040107 354.875097 
L 555.986631 338.289005 
L 565.933155 322.154936 
L 575.879679 306.553175 
L 585.826203 291.550798 
L 595.772727 277.201823 
L 605.719251 263.547646 
L 615.665775 250.617726 
L 620.639037 244.430514 
L 625.612299 238.430447 
L 630.585561 232.618256 
L 635.558824 226.994108 
L 640.532086 221.55764 
L 645.505348 216.307997 
L 650.47861 211.243865 
L 655.451872 206.363507 
L 660.425134 201.664799 
L 665.398396 197.145259 
L 670.371658 192.802088 
L 675.34492 188.632194 
L 680.318182 184.632232 
L 685.291444 180.798627 
L 690.264706 177.127606 
L 695.237968 173.615226 
L 700.21123 170.257401 
L 705.184492 167.049925 
L 710.157754 163.988495 
L 715.131016 161.068738 
L 720.104278 158.286225 
L 725.07754 155.636494 
L 735.024064 150.717473 
L 744.970588 146.275956 
L 754.917112 142.276688 
L 764.863636 138.685257 
L 774.81016 135.468403 
L 784.756684 132.594255 
L 794.703209 130.03251 
L 804.649733 127.754551 
L 814.596257 125.733531 
L 824.542781 123.944406 
L 834.489305 122.363939 
L 844.435829 120.970678 
L 854.382353 119.744908 
L 869.302139 118.181284 
L 884.221925 116.900094 
L 899.141711 115.854563 
L 914.061497 115.00465 
L 933.954545 114.117687 
L 933.954545 114.117687 
" clip-path="url(#p5959e09894)" style="fill: none; stroke: #17becf; stroke-width: 1.5; stroke-linecap: square"/>
   </g>
   <g id="patch_3">
    <path d="M 135 640.8 
L 135 86.4 
" style="fill: none; stroke: #000000; stroke-width: 0.8; stroke-linejoin: miter; stroke-linecap: square"/>
   </g>
   <g id="patch_4">
    <path d="M 972 640.8 
L 972 86.4 
" style="fill: none; stroke: #000000; stroke-width: 0.8; stroke-linejoin: miter; stroke-linecap: square"/>
   </g>
   <g id="patch_5">
    <path d="M 135 640.8 
L 972 640.8 
" style="fill: none; stroke: #000000; stroke-width: 0.8; stroke-linejoin: miter; stroke-linecap: square"/>
   </g>
   <g id="patch_6">
    <path d="M 135 86.4 
L 972 86.4 
" style="fill: none; stroke: #000000; stroke-width: 0.8; stroke-linejoin: miter; stroke-linecap: square"/>
   </g>
  </g>
 </g>
 <defs>
  <clipPath id="p5959e09894">
   <rect x="135" y="86.4" width="837" height="554.4"/>
  </clipPath>
 </defs>
</svg>
