<?xml version="1.0" encoding="utf-8" standalone="no"?>
<!DOCTYPE svg PUBLIC "-//W3C//DTD SVG 1.1//EN"
  "http://www.w3.org/Graphics/SVG/1.1/DTD/svg11.dtd">
<svg xmlns:xlink="http://www.w3.org/1999/xlink" width="460.8pt" height="345.6pt" viewBox="0 0 460.8 345.6" xmlns="http://www.w3.org/2000/svg" version="1.1">
 <metadata>
  <rdf:RDF xmlns:dc="http://purl.org/dc/elements/1.1/" xmlns:cc="http://creativecommons.org/ns#" xmlns:rdf="http://www.w3.org/1999/02/22-rdf-syntax-ns#">
   <cc:Work>
    <dc:type rdf:resource="http://purl.org/dc/dcmitype/StillImage"/>
    <dc:date>2022-09-07T10:10:17.635615</dc:date>
    <dc:format>image/svg+xml</dc:format>
    <dc:creator>
     <cc:Agent>
      <dc:title>Matplotlib v3.5.3, https://matplotlib.org/</dc:title>
     </cc:Agent>
    </dc:creator>
   </cc:Work>
  </rdf:RDF>
 </metadata>
 <defs>
  <style type="text/css">*{stroke-linejoin: round; stroke-linecap: butt}</style>
 </defs>
 <g id="figure_1">
  <g id="patch_1">
   <path d="M 0 345.6 
L 460.8 345.6 
L 460.8 0 
L 0 0 
z
" style="fill: #ffffff"/>
  </g>
  <g id="axes_1">
   <g id="line2d_1">
    <path d="M 73.832727 53.568 
L 77.112066 70.097794 
L 80.391405 85.499178 
L 83.670744 99.849184 
L 86.950083 113.219583 
L 90.229421 125.677249 
L 93.50876 137.28449 
L 96.788099 148.09936 
L 100.067438 158.17595 
L 103.346777 167.56466 
L 106.626116 176.312448 
L 109.905455 184.463065 
L 113.184793 192.05728 
L 116.464132 199.133073 
L 119.743471 205.725836 
L 123.02281 211.868543 
L 126.302149 217.591917 
L 129.581488 222.924583 
L 132.860826 227.893213 
L 136.140165 232.522659 
L 139.419504 236.836075 
L 142.698843 240.855034 
L 145.978182 244.599639 
L 149.257521 248.088617 
L 152.53686 251.339419 
L 155.816198 254.368305 
L 159.095537 257.190423 
L 162.374876 259.819889 
L 165.654215 262.269853 
L 168.933554 264.55257 
L 172.212893 266.679457 
L 175.492231 268.661152 
L 178.77157 270.507566 
L 182.050909 272.227934 
L 185.330248 273.83086 
L 188.609587 275.324363 
L 191.888926 276.715911 
L 195.168264 278.012465 
L 198.447603 279.220509 
L 201.726942 280.346086 
L 205.006281 281.394826 
L 208.28562 282.371972 
L 211.564959 283.282414 
L 214.844298 284.130704 
L 218.123636 284.921086 
L 221.402975 285.657512 
L 224.682314 286.343665 
L 227.961653 286.982978 
L 231.240992 287.578649 
L 234.520331 288.133656 
L 237.799669 288.650775 
L 241.079008 289.132593 
L 244.358347 289.581519 
L 247.637686 289.999799 
L 250.917025 290.389526 
L 254.196364 290.752648 
L 257.475702 291.090981 
L 260.755041 291.406217 
L 264.03438 291.699934 
L 267.313719 291.973601 
L 270.593058 292.228585 
L 273.872397 292.466163 
L 277.151736 292.687523 
L 280.431074 292.893771 
L 283.710413 293.08594 
L 286.989752 293.26499 
L 290.269091 293.431818 
L 293.54843 293.587257 
L 296.827769 293.732084 
L 300.107107 293.867026 
L 303.386446 293.992755 
L 306.665785 294.109901 
L 309.945124 294.219051 
L 313.224463 294.320749 
L 316.503802 294.415505 
L 319.78314 294.503792 
L 323.062479 294.586053 
L 326.341818 294.662698 
L 329.621157 294.73411 
L 332.900496 294.800648 
L 336.179835 294.862643 
L 339.459174 294.920407 
L 342.738512 294.974227 
L 346.017851 295.024373 
L 349.29719 295.071096 
L 352.576529 295.114629 
L 355.855868 295.15519 
L 359.135207 295.192983 
L 362.414545 295.228196 
L 365.693884 295.261004 
L 368.973223 295.291574 
L 372.252562 295.320056 
L 375.531901 295.346594 
L 378.81124 295.37132 
L 382.090579 295.394359 
L 385.369917 295.415824 
L 388.649256 295.435825 
L 391.928595 295.45446 
L 395.207934 295.471822 
L 398.487273 295.488 
" clip-path="url(#pe51a34670c)" style="fill: none; stroke: #1f77b4; stroke-width: 1.5; stroke-linecap: square"/>
   </g>
  </g>
 </g>
 <defs>
  <clipPath id="pe51a34670c">
   <rect x="57.6" y="41.472" width="357.12" height="266.112"/>
  </clipPath>
 </defs>
</svg>
